# xmcd
#
# Track frame offsets:
#	150
#	22440
#	44957
#	66505
#	85342
#	104667
#	123402
#	140402
#	156120
#	177847
#	197437
#	215212
#
# Disc length: 3121 seconds
#
# Revision: 1
# Processed by: cddbd v1.5.1PL0 Copyright (c) Steve Scherf et al.
# Submitted via: CDex 1.50Beta5
#
DISCID=c10c2f0c
DTITLE=SISTER KAYA - Life
DYEAR=2002
DGENRE=Rock
TTITLE0=あなたの夢が叶いますように
TTITLE1=やさしい雨
TTITLE2=スタートライン
TTITLE3=Friend for life
TTITLE4=美しきレゲエの光と道
TTITLE5=南から吹く風
TTITLE6=Really
TTITLE7=Run&run&run
TTITLE8=HaveMercy with MightyDiamonds
TTITLE9=To Be Free
TTITLE10=La la means I love you〜DubMix〜
TTITLE11=Friend for life(English Version)
EXTD=
EXTT0=
EXTT1=
EXTT2=
EXTT3=
EXTT4=
EXTT5=
EXTT6=
EXTT7=
EXTT8=
EXTT9=
EXTT10=
EXTT11=
PLAYORDER=
